<svg version="1.1" xmlns="http://www.w3.org/2000/svg" xmlns:xlink="http://www.w3.org/1999/xlink" width="849" height="580"><defs></defs><g><g transform="translate(-110,-54) scale(1,1)"><rect fill="#C0C0C0" stroke="none" x="319" y="71" width="512" height="560" opacity="0.2"></rect></g><g transform="translate(-110,-54) scale(1,1)"><rect fill="#ffffff" stroke="none" x="312" y="64" width="512" height="560"></rect></g><g transform="translate(-110,-54) scale(1,1)"><path fill="none" stroke="#000000" d="M 312 64 L 824 64 L 824 624 L 312 624 L 312 64 Z Z" stroke-miterlimit="10"></path></g><g transform="translate(-110,-54) scale(1,1)"><g><path fill="none" stroke="none"></path><text fill="#000000" stroke="none" font-family="Arial" font-size="15px" font-style="normal" font-weight="bold" text-decoration="none" x="512" y="85.5">Отгрузки товара</text></g></g><g transform="translate(-110,-54) scale(1,1)"><path fill="#ffffff" stroke="none" d="M 182.32072727272728 201.68 C 182.32072727272728 196.886167936 186.20656959767274 193 191 193 C 195.79343040232726 193 199.67927272727272 196.886167936 199.67927272727272 201.68 C 199.67927272727272 206.47383206400002 195.79343040232726 210.36 191 210.36 C 186.20656959767274 210.36 182.32072727272728 206.47383206400002 182.32072727272728 201.68 Z"></path></g><g transform="translate(-110,-54) scale(1,1)"><path fill="none" stroke="#000000" d="M 182.32072727272728 201.68 C 182.32072727272728 196.886167936 186.20656959767274 193 191 193 C 195.79343040232726 193 199.67927272727272 196.886167936 199.67927272727272 201.68 C 199.67927272727272 206.47383206400002 195.79343040232726 210.36 191 210.36 C 186.20656959767274 210.36 182.32072727272728 206.47383206400002 182.32072727272728 201.68 Z" stroke-miterlimit="10"></path></g><g transform="translate(-110,-54) scale(1,1)"><path fill="none" stroke="#000000" d="M 191 210.36 L 191 227.64" stroke-miterlimit="10"></path></g><g transform="translate(-110,-54) scale(1,1)"><path fill="none" stroke="#000000" d="M 181.81018181818183 216.84 L 200.18981818181817 216.84" stroke-miterlimit="10"></path></g><g transform="translate(-110,-54) scale(1,1)"><path fill="none" stroke="#000000" d="M 191 227.64 L 178.23636363636365 245" stroke-miterlimit="10"></path></g><g transform="translate(-110,-54) scale(1,1)"><path fill="none" stroke="#000000" d="M 191 227.64 L 203.76363636363635 245" stroke-miterlimit="10"></path></g><g transform="translate(-110,-54) scale(1,1)"><g><path fill="none" stroke="none"></path><text fill="#000000" stroke="none" font-family="Arial" font-size="13px" font-style="normal" font-weight="bold" text-decoration="none" x="156.5" y="265.5">Кладовщик</text></g></g><g transform="translate(-110,-54) scale(1,1)"><path fill="#ffffff" stroke="none" d="M 909.8207272727273 289.68 C 909.8207272727273 284.886167936 913.7065695976727 281 918.5 281 C 923.2934304023273 281 927.1792727272727 284.886167936 927.1792727272727 289.68 C 927.1792727272727 294.473832064 923.2934304023273 298.36 918.5 298.36 C 913.7065695976727 298.36 909.8207272727273 294.473832064 909.8207272727273 289.68 Z"></path></g><g transform="translate(-110,-54) scale(1,1)"><path fill="none" stroke="#000000" d="M 909.8207272727273 289.68 C 909.8207272727273 284.886167936 913.7065695976727 281 918.5 281 C 923.2934304023273 281 927.1792727272727 284.886167936 927.1792727272727 289.68 C 927.1792727272727 294.473832064 923.2934304023273 298.36 918.5 298.36 C 913.7065695976727 298.36 909.8207272727273 294.473832064 909.8207272727273 289.68 Z" stroke-miterlimit="10"></path></g><g transform="translate(-110,-54) scale(1,1)"><path fill="none" stroke="#000000" d="M 918.5 298.36 L 918.5 315.64" stroke-miterlimit="10"></path></g><g transform="translate(-110,-54) scale(1,1)"><path fill="none" stroke="#000000" d="M 909.3101818181818 304.84 L 927.6898181818182 304.84" stroke-miterlimit="10"></path></g><g transform="translate(-110,-54) scale(1,1)"><path fill="none" stroke="#000000" d="M 918.5 315.64 L 905.7363636363636 333" stroke-miterlimit="10"></path></g><g transform="translate(-110,-54) scale(1,1)"><path fill="none" stroke="#000000" d="M 918.5 315.64 L 931.2636363636364 333" stroke-miterlimit="10"></path></g><g transform="translate(-110,-54) scale(1,1)"><g><path fill="none" stroke="none"></path><text fill="#000000" stroke="none" font-family="Arial" font-size="13px" font-style="normal" font-weight="bold" text-decoration="none" x="895" y="353.5">Грузчик</text></g></g><g transform="translate(-110,-54) scale(1,1)"><path fill="#C0C0C0" stroke="none" d="M 439 129 C 439 114.6405952 500.7846976 103 577 103 C 653.2153024 103 715 114.6405952 715 129 C 715 143.3594048 653.2153024 155 577 155 C 500.7846976 155 439 143.3594048 439 129 Z" opacity="0.2"></path></g><g transform="translate(-110,-54) scale(1,1)"><path fill="#ffffff" stroke="none" d="M 432 122 C 432 107.6405952 493.7846976 96 570 96 C 646.2153024 96 708 107.6405952 708 122 C 708 136.3594048 646.2153024 148 570 148 C 493.7846976 148 432 136.3594048 432 122 Z"></path></g><g transform="translate(-110,-54) scale(1,1)"><path fill="none" stroke="#000000" d="M 432 122 C 432 107.6405952 493.7846976 96 570 96 C 646.2153024 96 708 107.6405952 708 122 C 708 136.3594048 646.2153024 148 570 148 C 493.7846976 148 432 136.3594048 432 122 Z" stroke-miterlimit="10"></path></g><g transform="translate(-110,-54) scale(1,1)"><g><path fill="none" stroke="none"></path><text fill="#000000" stroke="none" font-family="Arial" font-size="13px" font-style="normal" font-weight="normal" text-decoration="none" x="528.5" y="120.5">«Кладовщик»</text></g></g><g transform="translate(-110,-54) scale(1,1)"><g><path fill="none" stroke="none"></path><text fill="#000000" stroke="none" font-family="Arial" font-size="13px" font-style="normal" font-weight="bold" text-decoration="none" x="487" y="135.5">Печать погрузочных листов</text></g></g><g transform="translate(-110,-54) scale(1,1)"><path fill="#C0C0C0" stroke="none" d="M 375 209 C 375 194.6405952 462.7521792 183 571 183 C 679.2478208 183 767 194.6405952 767 209 C 767 223.3594048 679.2478208 235 571 235 C 462.7521792 235 375 223.3594048 375 209 Z" opacity="0.2"></path></g><g transform="translate(-110,-54) scale(1,1)"><path fill="#ffffff" stroke="none" d="M 368 202 C 368 187.6405952 455.7521792 176 564 176 C 672.2478208 176 760 187.6405952 760 202 C 760 216.3594048 672.2478208 228 564 228 C 455.7521792 228 368 216.3594048 368 202 Z"></path></g><g transform="translate(-110,-54) scale(1,1)"><path fill="none" stroke="#000000" d="M 368 202 C 368 187.6405952 455.7521792 176 564 176 C 672.2478208 176 760 187.6405952 760 202 C 760 216.3594048 672.2478208 228 564 228 C 455.7521792 228 368 216.3594048 368 202 Z" stroke-miterlimit="10"></path></g><g transform="translate(-110,-54) scale(1,1)"><g><path fill="none" stroke="none"></path><text fill="#000000" stroke="none" font-family="Arial" font-size="13px" font-style="normal" font-weight="normal" text-decoration="none" x="522.5" y="200.5">«Кладовщик»</text></g></g><g transform="translate(-110,-54) scale(1,1)"><g><path fill="none" stroke="none"></path><text fill="#000000" stroke="none" font-family="Arial" font-size="13px" font-style="normal" font-weight="bold" text-decoration="none" x="443.5" y="215.5">Распределение заданий на сбор товара</text></g></g><g transform="translate(-110,-54) scale(1,1)"><path fill="#C0C0C0" stroke="none" d="M 511 289 C 511 274.6405952 540.101488 263 576 263 C 611.898512 263 641 274.6405952 641 289 C 641 303.3594048 611.898512 315 576 315 C 540.101488 315 511 303.3594048 511 289 Z" opacity="0.2"></path></g><g transform="translate(-110,-54) scale(1,1)"><path fill="#ffffff" stroke="none" d="M 504 282 C 504 267.6405952 533.101488 256 569 256 C 604.898512 256 634 267.6405952 634 282 C 634 296.3594048 604.898512 308 569 308 C 533.101488 308 504 296.3594048 504 282 Z"></path></g><g transform="translate(-110,-54) scale(1,1)"><path fill="none" stroke="#000000" d="M 504 282 C 504 267.6405952 533.101488 256 569 256 C 604.898512 256 634 267.6405952 634 282 C 634 296.3594048 604.898512 308 569 308 C 533.101488 308 504 296.3594048 504 282 Z" stroke-miterlimit="10"></path></g><g transform="translate(-110,-54) scale(1,1)"><g><path fill="none" stroke="none"></path><text fill="#000000" stroke="none" font-family="Arial" font-size="13px" font-style="normal" font-weight="normal" text-decoration="none" x="538.5" y="280.5">«Грузчик»</text></g></g><g transform="translate(-110,-54) scale(1,1)"><g><path fill="none" stroke="none"></path><text fill="#000000" stroke="none" font-family="Arial" font-size="13px" font-style="normal" font-weight="bold" text-decoration="none" x="532" y="295.5">Сбор товара</text></g></g><g transform="translate(-110,-54) scale(1,1)"><path fill="#C0C0C0" stroke="none" d="M 440 363.5 C 440 343.3416048 508.0527104 327 592 327 C 675.9472896 327 744 343.3416048 744 363.5 C 744 383.6583952 675.9472896 400 592 400 C 508.0527104 400 440 383.6583952 440 363.5 Z" opacity="0.2"></path></g><g transform="translate(-110,-54) scale(1,1)"><path fill="#ffffff" stroke="none" d="M 433 356.5 C 433 336.3416048 501.0527104 320 585 320 C 668.9472896 320 737 336.3416048 737 356.5 C 737 376.6583952 668.9472896 393 585 393 C 501.0527104 393 433 376.6583952 433 356.5 Z"></path></g><g transform="translate(-110,-54) scale(1,1)"><path fill="none" stroke="#000000" d="M 433 356.5 C 433 336.3416048 501.0527104 320 585 320 C 668.9472896 320 737 336.3416048 737 356.5 C 737 376.6583952 668.9472896 393 585 393 C 501.0527104 393 433 376.6583952 433 356.5 Z" stroke-miterlimit="10"></path></g><g transform="translate(-110,-54) scale(1,1)"><g><path fill="none" stroke="none"></path><text fill="#000000" stroke="none" font-family="Arial" font-size="13px" font-style="normal" font-weight="normal" text-decoration="none" x="554.5" y="355">«Грузчик»</text></g></g><g transform="translate(-110,-54) scale(1,1)"><g><path fill="none" stroke="none"></path><text fill="#000000" stroke="none" font-family="Arial" font-size="13px" font-style="normal" font-weight="bold" text-decoration="none" x="490.5" y="370">Перемещение товара на рампу</text></g></g><g transform="translate(-110,-54) scale(1,1)"><path fill="none" stroke="#000000" d="M 263 210 L 476 149" stroke-miterlimit="10"></path></g><g transform="translate(-110,-54) scale(1,1)"><path fill="none" stroke="#000000" d="M 263 225 L 367 217" stroke-miterlimit="10"></path></g><g transform="translate(-110,-54) scale(1,1)"><path fill="none" stroke="#000000" d="M 566 229 L 567 255" stroke-miterlimit="10" stroke-dasharray="3"></path></g><g transform="translate(-110,-54) scale(1,1)"><path fill="none" stroke="#000000" d="M 562.4030090188141 245.0066184942785 L 567 255 L 570.8158243338299 244.6830486744702" stroke-miterlimit="10"></path></g><g transform="translate(-110,-54) scale(1,1)"><g><path fill="none" stroke="none"></path><text fill="#000000" stroke="none" font-family="Arial" font-size="13px" font-style="normal" font-weight="normal" text-decoration="none" x="567.828125" y="245.5">«include»</text></g></g><g transform="translate(-110,-54) scale(1,1)"><path fill="none" stroke="#000000" d="M 635 289 L 887 316" stroke-miterlimit="10"></path></g><g transform="translate(-110,-54) scale(1,1)"><path fill="none" stroke="#000000" d="M 738 339 L 887 322" stroke-miterlimit="10"></path></g><g transform="translate(-110,-54) scale(1,1)"><path fill="#C0C0C0" stroke="none" d="M 447 473 C 447 458.6405952 510.5755584 447 589 447 C 667.4244416 447 731 458.6405952 731 473 C 731 487.3594048 667.4244416 499 589 499 C 510.5755584 499 447 487.3594048 447 473 Z" opacity="0.2"></path></g><g transform="translate(-110,-54) scale(1,1)"><path fill="#ffffff" stroke="none" d="M 440 466 C 440 451.6405952 503.5755584 440 582 440 C 660.4244416 440 724 451.6405952 724 466 C 724 480.3594048 660.4244416 492 582 492 C 503.5755584 492 440 480.3594048 440 466 Z"></path></g><g transform="translate(-110,-54) scale(1,1)"><path fill="none" stroke="#000000" d="M 440 466 C 440 451.6405952 503.5755584 440 582 440 C 660.4244416 440 724 451.6405952 724 466 C 724 480.3594048 660.4244416 492 582 492 C 503.5755584 492 440 480.3594048 440 466 Z" stroke-miterlimit="10"></path></g><g transform="translate(-110,-54) scale(1,1)"><g><path fill="none" stroke="none"></path><text fill="#000000" stroke="none" font-family="Arial" font-size="13px" font-style="normal" font-weight="normal" text-decoration="none" x="540.5" y="464.5">«Кладовщик»</text></g></g><g transform="translate(-110,-54) scale(1,1)"><g><path fill="none" stroke="none"></path><text fill="#000000" stroke="none" font-family="Arial" font-size="13px" font-style="normal" font-weight="bold" text-decoration="none" x="496.5" y="479.5">Проверка товара по заказам</text></g></g><g transform="translate(-110,-54) scale(1,1)"><path fill="none" stroke="#000000" d="M 537 439 L 259 272" stroke-miterlimit="10"></path></g><g transform="translate(-110,-54) scale(1,1)"><path fill="none" stroke="#000000" d="M 583 439 L 584 394" stroke-miterlimit="10" stroke-dasharray="3"></path></g><g transform="translate(-110,-54) scale(1,1)"><path fill="none" stroke="#000000" d="M 587.9826972762894 404.25368823426174 L 584 394 L 579.5657397688582 404.0666447340966" stroke-miterlimit="10"></path></g><g transform="translate(-110,-54) scale(1,1)"><g><path fill="none" stroke="none"></path><text fill="#000000" stroke="none" font-family="Arial" font-size="13px" font-style="normal" font-weight="normal" text-decoration="none" x="526.745849609375" y="420.5">«extend»</text></g></g><g transform="translate(-110,-54) scale(1,1)"><path fill="#C0C0C0" stroke="none" d="M 447 590.5 C 447 573.1030288 509.4562704 559 586.5 559 C 663.5437296 559 726 573.1030288 726 590.5 C 726 607.8969712 663.5437296 622 586.5 622 C 509.4562704 622 447 607.8969712 447 590.5 Z" opacity="0.2"></path></g><g transform="translate(-110,-54) scale(1,1)"><path fill="#ffffff" stroke="none" d="M 440 583.5 C 440 566.1030288 502.4562704 552 579.5 552 C 656.5437296 552 719 566.1030288 719 583.5 C 719 600.8969712 656.5437296 615 579.5 615 C 502.4562704 615 440 600.8969712 440 583.5 Z"></path></g><g transform="translate(-110,-54) scale(1,1)"><path fill="none" stroke="#000000" d="M 440 583.5 C 440 566.1030288 502.4562704 552 579.5 552 C 656.5437296 552 719 566.1030288 719 583.5 C 719 600.8969712 656.5437296 615 579.5 615 C 502.4562704 615 440 600.8969712 440 583.5 Z" stroke-miterlimit="10"></path></g><g transform="translate(-110,-54) scale(1,1)"><g><path fill="none" stroke="none"></path><text fill="#000000" stroke="none" font-family="Arial" font-size="13px" font-style="normal" font-weight="normal" text-decoration="none" x="549" y="582">«Грузчик»</text></g></g><g transform="translate(-110,-54) scale(1,1)"><g><path fill="none" stroke="none"></path><text fill="#000000" stroke="none" font-family="Arial" font-size="13px" font-style="normal" font-weight="bold" text-decoration="none" x="499.5" y="597">Загрузка товара в машину</text></g></g><g transform="translate(-110,-54) scale(1,1)"><path fill="none" stroke="#000000" d="M 887 343 L 620 551" stroke-miterlimit="10"></path></g><g transform="translate(-110,-54) scale(1,1)"><path fill="none" stroke="#000000" d="M 580 551 L 581 493" stroke-miterlimit="10" stroke-dasharray="3"></path></g><g transform="translate(-110,-54) scale(1,1)"><path fill="none" stroke="#000000" d="M 585.0336997293381 503.23373179702975 L 581 493 L 576.6159152813613 503.0885975824094" stroke-miterlimit="10"></path></g><g transform="translate(-110,-54) scale(1,1)"><g><path fill="none" stroke="none"></path><text fill="#000000" stroke="none" font-family="Arial" font-size="13px" font-style="normal" font-weight="normal" text-decoration="none" x="523.745849609375" y="526.5">«extend»</text></g></g></g></svg>