<svg version="1.1" xmlns="http://www.w3.org/2000/svg" xmlns:xlink="http://www.w3.org/1999/xlink" width="804" height="748"><defs></defs><g><g transform="translate(10,10) scale(1,1)"><path fill="none" stroke="#000000" d="M 0 0 L 784 0 L 784 728 L 0 728 L 0 0" stroke-miterlimit="10"></path></g><g transform="translate(10,10) scale(1,1)"><path fill="#ffffff" stroke="none" d="M 0 0 L 0 22 L 174 22 L 185 11 L 185 0 L 0 0"></path></g><g transform="translate(10,10) scale(1,1)"><path fill="none" stroke="#000000" d="M 0 0 L 0 22 L 174 22 L 185 11 L 185 0 L 0 0 L 0 0" stroke-miterlimit="10"></path></g><g transform="translate(10,10) scale(1,1)"><g><path fill="none" stroke="none"></path><text fill="#000000" stroke="none" font-family="Arial" font-size="13px" font-style="normal" font-weight="normal" text-decoration="none" x="71" y="17.5">Обмен данными</text></g></g><g transform="translate(10,10) scale(1,1)"><g><path fill="none" stroke="none"></path><text fill="#000000" stroke="none" font-family="Arial" font-size="13px" font-style="normal" font-weight="bold" text-decoration="none" x="5" y="17.5">interaction</text></g></g><g transform="translate(10,10) scale(1,1)"><rect fill="#C0C0C0" stroke="none" x="199" y="47" width="95" height="39" opacity="0.2"></rect></g><g transform="translate(10,10) scale(1,1)"><rect fill="#ffffff" stroke="none" x="192" y="40" width="95" height="39"></rect></g><g transform="translate(10,10) scale(1,1)"><path fill="none" stroke="#000000" d="M 192 40 L 287 40 L 287 79 L 192 79 L 192 40 Z Z" stroke-miterlimit="10"></path></g><g transform="translate(10,10) scale(1,1)"><g><path fill="none" stroke="none"></path><text fill="#000000" stroke="none" font-family="Arial" font-size="13px" font-style="normal" font-weight="bold" text-decoration="none" x="231.5" y="59.5">1С</text></g></g><g transform="translate(10,10) scale(1,1)"><path fill="none" stroke="#000000" d="M 240.5 80 L 240.5 728" stroke-miterlimit="10" stroke-dasharray="3"></path></g><g transform="translate(10,10) scale(1,1)"><rect fill="#C0C0C0" stroke="none" x="567" y="47" width="104" height="39" opacity="0.2"></rect></g><g transform="translate(10,10) scale(1,1)"><rect fill="#ffffff" stroke="none" x="560" y="40" width="104" height="39"></rect></g><g transform="translate(10,10) scale(1,1)"><path fill="none" stroke="#000000" d="M 560 40 L 664 40 L 664 79 L 560 79 L 560 40 Z Z" stroke-miterlimit="10"></path></g><g transform="translate(10,10) scale(1,1)"><g><path fill="none" stroke="none"></path><text fill="#000000" stroke="none" font-family="Arial" font-size="13px" font-style="normal" font-weight="bold" text-decoration="none" x="595.5" y="59.5">WMS</text></g></g><g transform="translate(10,10) scale(1,1)"><path fill="none" stroke="#000000" d="M 613.5 80 L 613.5 728" stroke-miterlimit="10" stroke-dasharray="3"></path></g><g transform="translate(10,10) scale(1,1)"><path fill="#000000" stroke="none" d="M 24 119.5 C 24 115.6340064 27.1340064 112.5 31 112.5 C 34.8659936 112.5 38 115.6340064 38 119.5 C 38 123.3659936 34.8659936 126.5 31 126.5 C 27.1340064 126.5 24 123.3659936 24 119.5 Z"></path></g><g transform="translate(10,10) scale(1,1)"><path fill="#000000" stroke="none" d="M 24 193.5 C 24 189.6340064 27.1340064 186.5 31 186.5 C 34.8659936 186.5 38 189.6340064 38 193.5 C 38 197.3659936 34.8659936 200.5 31 200.5 C 27.1340064 200.5 24 197.3659936 24 193.5 Z"></path></g><g transform="translate(10,10) scale(1,1)"><path fill="#000000" stroke="none" d="M 24 256.5 C 24 252.6340064 27.1340064 249.5 31 249.5 C 34.8659936 249.5 38 252.6340064 38 256.5 C 38 260.3659936 34.8659936 263.5 31 263.5 C 27.1340064 263.5 24 260.3659936 24 256.5 Z"></path></g><g transform="translate(10,10) scale(1,1)"><path fill="#000000" stroke="none" d="M 24 391.5 C 24 387.6340064 27.1340064 384.5 31 384.5 C 34.8659936 384.5 38 387.6340064 38 391.5 C 38 395.3659936 34.8659936 398.5 31 398.5 C 27.1340064 398.5 24 395.3659936 24 391.5 Z"></path></g><g transform="translate(10,10) scale(1,1)"><path fill="#000000" stroke="none" d="M 24 431.5 C 24 427.6340064 27.1340064 424.5 31 424.5 C 34.8659936 424.5 38 427.6340064 38 431.5 C 38 435.3659936 34.8659936 438.5 31 438.5 C 27.1340064 438.5 24 435.3659936 24 431.5 Z"></path></g><g transform="translate(10,10) scale(1,1)"><path fill="#000000" stroke="none" d="M 24 536.5 C 24 532.6340064 27.1340064 529.5 31 529.5 C 34.8659936 529.5 38 532.6340064 38 536.5 C 38 540.3659936 34.8659936 543.5 31 543.5 C 27.1340064 543.5 24 540.3659936 24 536.5 Z"></path></g><g transform="translate(10,10) scale(1,1)"><path fill="#000000" stroke="none" d="M 24 287.5 C 24 283.6340064 27.1340064 280.5 31 280.5 C 34.8659936 280.5 38 283.6340064 38 287.5 C 38 291.3659936 34.8659936 294.5 31 294.5 C 27.1340064 294.5 24 291.3659936 24 287.5 Z"></path></g><g transform="translate(10,10) scale(1,1)"><path fill="#000000" stroke="none" d="M 704 631.5 C 704 627.6340064 707.1340064 624.5 711 624.5 C 714.8659936 624.5 718 627.6340064 718 631.5 C 718 635.3659936 714.8659936 638.5 711 638.5 C 707.1340064 638.5 704 635.3659936 704 631.5 Z"></path></g><g transform="translate(10,10) scale(1,1)"><path fill="none" stroke="#000000" d="M 38 120 L 233 120" stroke-miterlimit="10"></path></g><g transform="translate(10,10) scale(1,1)"><path fill="#000000" stroke="none" d="M 222.83732514237585 124.20951775601598 L 233 120 L 222.83732514237585 115.79048224398402"></path></g><g transform="translate(10,10) scale(1,1)"><path fill="none" stroke="#000000" d="M 222.83732514237585 124.20951775601598 L 233 120 L 222.83732514237585 115.79048224398402 L 222.83732514237585 124.20951775601598" stroke-miterlimit="10"></path></g><g transform="translate(10,10) scale(1,1)"><g><path fill="none" stroke="none"></path><text fill="#000000" stroke="none" font-family="Arial" font-size="13px" font-style="normal" font-weight="normal" text-decoration="none" x="55.71142578125" y="114.5">1 : Новый контрагент</text></g></g><g transform="translate(10,10) scale(1,1)"><rect fill="#ffffff" stroke="none" x="233" y="120" width="13" height="28"></rect></g><g transform="translate(10,10) scale(1,1)"><path fill="none" stroke="#000000" d="M 233 120 L 246 120 L 246 148 L 233 148 L 233 120 Z Z" stroke-miterlimit="10"></path></g><g transform="translate(10,10) scale(1,1)"><path fill="none" stroke="#000000" d="M 246 144 L 606 144" stroke-miterlimit="10"></path></g><g transform="translate(10,10) scale(1,1)"><path fill="none" stroke="#000000" d="M 595.8373251423759 148.209517756016 L 606 144 L 595.8373251423758 139.790482243984" stroke-miterlimit="10"></path></g><g transform="translate(10,10) scale(1,1)"><g><path fill="none" stroke="none"></path><text fill="#000000" stroke="none" font-family="Arial" font-size="13px" font-style="normal" font-weight="normal" text-decoration="none" x="332.5" y="140.5">2 : Выгружаем(SKH00000.DAT)</text></g></g><g transform="translate(10,10) scale(1,1)"><rect fill="#ffffff" stroke="none" x="606" y="144" width="13" height="28"></rect></g><g transform="translate(10,10) scale(1,1)"><path fill="none" stroke="#000000" d="M 606 144 L 619 144 L 619 172 L 606 172 L 606 144 Z Z" stroke-miterlimit="10"></path></g><g transform="translate(10,10) scale(1,1)"><path fill="none" stroke="#000000" d="M 38 194 L 233 194" stroke-miterlimit="10"></path></g><g transform="translate(10,10) scale(1,1)"><path fill="#000000" stroke="none" d="M 222.83732514237585 198.209517756016 L 233 194 L 222.83732514237585 189.790482243984"></path></g><g transform="translate(10,10) scale(1,1)"><path fill="none" stroke="#000000" d="M 222.83732514237585 198.209517756016 L 233 194 L 222.83732514237585 189.790482243984 L 222.83732514237585 198.209517756016" stroke-miterlimit="10"></path></g><g transform="translate(10,10) scale(1,1)"><g><path fill="none" stroke="none"></path><text fill="#000000" stroke="none" font-family="Arial" font-size="13px" font-style="normal" font-weight="normal" text-decoration="none" x="63.1279296875" y="187.5">3 : Новый артикул</text></g></g><g transform="translate(10,10) scale(1,1)"><rect fill="#ffffff" stroke="none" x="233" y="194" width="13" height="28"></rect></g><g transform="translate(10,10) scale(1,1)"><path fill="none" stroke="#000000" d="M 233 194 L 246 194 L 246 222 L 233 222 L 233 194 Z Z" stroke-miterlimit="10"></path></g><g transform="translate(10,10) scale(1,1)"><path fill="none" stroke="#000000" d="M 246 216 L 606 216" stroke-miterlimit="10"></path></g><g transform="translate(10,10) scale(1,1)"><path fill="none" stroke="#000000" d="M 595.8373251423759 220.209517756016 L 606 216 L 595.8373251423758 211.790482243984" stroke-miterlimit="10"></path></g><g transform="translate(10,10) scale(1,1)"><g><path fill="none" stroke="none"></path><text fill="#000000" stroke="none" font-family="Arial" font-size="13px" font-style="normal" font-weight="normal" text-decoration="none" x="332.5" y="212.5">4 : Выгружаем(SAR00000.DAT)</text></g></g><g transform="translate(10,10) scale(1,1)"><rect fill="#ffffff" stroke="none" x="606" y="216" width="13" height="28"></rect></g><g transform="translate(10,10) scale(1,1)"><path fill="none" stroke="#000000" d="M 606 216 L 619 216 L 619 244 L 606 244 L 606 216 Z Z" stroke-miterlimit="10"></path></g><g transform="translate(10,10) scale(1,1)"><path fill="none" stroke="#000000" d="M 38 257 L 233 257" stroke-miterlimit="10"></path></g><g transform="translate(10,10) scale(1,1)"><path fill="#000000" stroke="none" d="M 222.83732514237585 261.209517756016 L 233 257 L 222.83732514237585 252.790482243984"></path></g><g transform="translate(10,10) scale(1,1)"><path fill="none" stroke="#000000" d="M 222.83732514237585 261.209517756016 L 233 257 L 222.83732514237585 252.790482243984 L 222.83732514237585 261.209517756016" stroke-miterlimit="10"></path></g><g transform="translate(10,10) scale(1,1)"><g><path fill="none" stroke="none"></path><text fill="#000000" stroke="none" font-family="Arial" font-size="13px" font-style="normal" font-weight="normal" text-decoration="none" x="38.59521484375" y="250.5">5 : Возврат от покупателя</text></g></g><g transform="translate(10,10) scale(1,1)"><rect fill="#ffffff" stroke="none" x="233" y="257" width="13" height="111"></rect></g><g transform="translate(10,10) scale(1,1)"><path fill="none" stroke="#000000" d="M 233 257 L 246 257 L 246 368 L 233 368 L 233 257 Z Z" stroke-miterlimit="10"></path></g><g transform="translate(10,10) scale(1,1)"><path fill="none" stroke="#000000" d="M 246 272 L 606 272" stroke-miterlimit="10"></path></g><g transform="translate(10,10) scale(1,1)"><path fill="#000000" stroke="none" d="M 595.8373251423759 276.209517756016 L 606 272 L 595.8373251423758 267.790482243984"></path></g><g transform="translate(10,10) scale(1,1)"><path fill="none" stroke="#000000" d="M 595.8373251423759 276.209517756016 L 606 272 L 595.8373251423758 267.790482243984 L 595.8373251423759 276.209517756016" stroke-miterlimit="10"></path></g><g transform="translate(10,10) scale(1,1)"><g><path fill="none" stroke="none"></path><text fill="#000000" stroke="none" font-family="Arial" font-size="13px" font-style="normal" font-weight="normal" text-decoration="none" x="332.897705078125" y="268.5">6 : Выгружаем(SPR00000.DAT)</text></g></g><g transform="translate(10,10) scale(1,1)"><rect fill="#ffffff" stroke="none" x="606" y="272" width="13" height="104"></rect></g><g transform="translate(10,10) scale(1,1)"><path fill="none" stroke="#000000" d="M 606 272 L 619 272 L 619 376 L 606 376 L 606 272 Z Z" stroke-miterlimit="10"></path></g><g transform="translate(10,10) scale(1,1)"><path fill="none" stroke="#000000" d="M 38 288 L 240 288" stroke-miterlimit="10"></path></g><g transform="translate(10,10) scale(1,1)"><path fill="#000000" stroke="none" d="M 229.83732514237585 292.209517756016 L 240 288 L 229.83732514237585 283.790482243984"></path></g><g transform="translate(10,10) scale(1,1)"><path fill="none" stroke="#000000" d="M 229.83732514237585 292.209517756016 L 240 288 L 229.83732514237585 283.790482243984 L 229.83732514237585 292.209517756016" stroke-miterlimit="10"></path></g><g transform="translate(10,10) scale(1,1)"><g><path fill="none" stroke="none"></path><text fill="#000000" stroke="none" font-family="Arial" font-size="13px" font-style="normal" font-weight="normal" text-decoration="none" x="66.5" y="284.5">7 : Заказы поставщиков</text></g></g><g transform="translate(10,10) scale(1,1)"><rect fill="#ffffff" stroke="none" x="240" y="288" width="13" height="28"></rect></g><g transform="translate(10,10) scale(1,1)"><path fill="none" stroke="#000000" d="M 240 288 L 253 288 L 253 316 L 240 316 L 240 288 Z Z" stroke-miterlimit="10"></path></g><g transform="translate(10,10) scale(1,1)"><path fill="none" stroke="#000000" d="M 606 328 L 246 328" stroke-miterlimit="10" stroke-dasharray="3"></path></g><g transform="translate(10,10) scale(1,1)"><path fill="none" stroke="#000000" d="M 256.16267485762415 323.790482243984 L 246 328 L 256.16267485762415 332.209517756016" stroke-miterlimit="10"></path></g><g transform="translate(10,10) scale(1,1)"><g><path fill="none" stroke="none"></path><text fill="#000000" stroke="none" font-family="Arial" font-size="13px" font-style="normal" font-weight="normal" text-decoration="none" x="288.5" y="344.5">8 : Подтверждаем операцию(SDO00000.DAT)</text></g></g><g transform="translate(10,10) scale(1,1)"><path fill="none" stroke="#000000" d="M 606 352 L 246 352" stroke-miterlimit="10" stroke-dasharray="3"></path></g><g transform="translate(10,10) scale(1,1)"><path fill="none" stroke="#000000" d="M 256.16267485762415 347.790482243984 L 246 352 L 256.16267485762415 356.209517756016" stroke-miterlimit="10"></path></g><g transform="translate(10,10) scale(1,1)"><g><path fill="none" stroke="none"></path><text fill="#000000" stroke="none" font-family="Arial" font-size="13px" font-style="normal" font-weight="normal" text-decoration="none" x="284.5" y="368.5">9 : Передача количества тары(ABC00000.DAT)</text></g></g><g transform="translate(10,10) scale(1,1)"><path fill="none" stroke="#000000" d="M 38 392 L 233 392" stroke-miterlimit="10"></path></g><g transform="translate(10,10) scale(1,1)"><path fill="#000000" stroke="none" d="M 222.83732514237585 396.209517756016 L 233 392 L 222.83732514237585 387.790482243984"></path></g><g transform="translate(10,10) scale(1,1)"><path fill="none" stroke="#000000" d="M 222.83732514237585 396.209517756016 L 233 392 L 222.83732514237585 387.790482243984 L 222.83732514237585 396.209517756016" stroke-miterlimit="10"></path></g><g transform="translate(10,10) scale(1,1)"><g><path fill="none" stroke="none"></path><text fill="#000000" stroke="none" font-family="Arial" font-size="13px" font-style="normal" font-weight="normal" text-decoration="none" x="19.5" y="378.5">10 : Реализация товаров и услуг</text></g></g><g transform="translate(10,10) scale(1,1)"><rect fill="#ffffff" stroke="none" x="233" y="392" width="13" height="112"></rect></g><g transform="translate(10,10) scale(1,1)"><path fill="none" stroke="#000000" d="M 233 392 L 246 392 L 246 504 L 233 504 L 233 392 Z Z" stroke-miterlimit="10"></path></g><g transform="translate(10,10) scale(1,1)"><path fill="none" stroke="#000000" d="M 246 416 L 606 416" stroke-miterlimit="10"></path></g><g transform="translate(10,10) scale(1,1)"><path fill="#000000" stroke="none" d="M 595.8373251423759 420.209517756016 L 606 416 L 595.8373251423758 411.790482243984"></path></g><g transform="translate(10,10) scale(1,1)"><path fill="none" stroke="#000000" d="M 595.8373251423759 420.209517756016 L 606 416 L 595.8373251423758 411.790482243984 L 595.8373251423759 420.209517756016" stroke-miterlimit="10"></path></g><g transform="translate(10,10) scale(1,1)"><g><path fill="none" stroke="none"></path><text fill="#000000" stroke="none" font-family="Arial" font-size="13px" font-style="normal" font-weight="normal" text-decoration="none" x="336.5" y="412.5">11 : Выгужаем SSL00000.DAT</text></g></g><g transform="translate(10,10) scale(1,1)"><rect fill="#ffffff" stroke="none" x="606" y="416" width="13" height="96"></rect></g><g transform="translate(10,10) scale(1,1)"><path fill="none" stroke="#000000" d="M 606 416 L 619 416 L 619 512 L 606 512 L 606 416 Z Z" stroke-miterlimit="10"></path></g><g transform="translate(10,10) scale(1,1)"><path fill="none" stroke="#000000" d="M 38 432 L 240 432" stroke-miterlimit="10"></path></g><g transform="translate(10,10) scale(1,1)"><path fill="#000000" stroke="none" d="M 229.83732514237585 436.209517756016 L 240 432 L 229.83732514237585 427.790482243984"></path></g><g transform="translate(10,10) scale(1,1)"><path fill="none" stroke="#000000" d="M 229.83732514237585 436.209517756016 L 240 432 L 229.83732514237585 427.790482243984 L 229.83732514237585 436.209517756016" stroke-miterlimit="10"></path></g><g transform="translate(10,10) scale(1,1)"><g><path fill="none" stroke="none"></path><text fill="#000000" stroke="none" font-family="Arial" font-size="13px" font-style="normal" font-weight="normal" text-decoration="none" x="11.696044921875" y="419.5">12 : Возврат товаров поставщику</text></g></g><g transform="translate(10,10) scale(1,1)"><rect fill="#ffffff" stroke="none" x="240" y="432" width="13" height="28"></rect></g><g transform="translate(10,10) scale(1,1)"><path fill="none" stroke="#000000" d="M 240 432 L 253 432 L 253 460 L 240 460 L 240 432 Z Z" stroke-miterlimit="10"></path></g><g transform="translate(10,10) scale(1,1)"><path fill="none" stroke="#000000" d="M 606 472 L 246 472" stroke-miterlimit="10" stroke-dasharray="3"></path></g><g transform="translate(10,10) scale(1,1)"><path fill="none" stroke="#000000" d="M 256.16267485762415 467.790482243984 L 246 472 L 256.16267485762415 476.209517756016" stroke-miterlimit="10"></path></g><g transform="translate(10,10) scale(1,1)"><g><path fill="none" stroke="none"></path><text fill="#000000" stroke="none" font-family="Arial" font-size="13px" font-style="normal" font-weight="normal" text-decoration="none" x="285.5" y="488.5">13 : Подтверждаем операцию(SDO00000.DAT)</text></g></g><g transform="translate(10,10) scale(1,1)"><path fill="none" stroke="#000000" d="M 606 496 L 246 496" stroke-miterlimit="10" stroke-dasharray="3"></path></g><g transform="translate(10,10) scale(1,1)"><path fill="none" stroke="#000000" d="M 256.16267485762415 491.790482243984 L 246 496 L 256.16267485762415 500.209517756016" stroke-miterlimit="10"></path></g><g transform="translate(10,10) scale(1,1)"><g><path fill="none" stroke="none"></path><text fill="#000000" stroke="none" font-family="Arial" font-size="13px" font-style="normal" font-weight="normal" text-decoration="none" x="281.5" y="512.5">14 : Передача количества тары(ABC00000.DAT)</text></g></g><g transform="translate(10,10) scale(1,1)"><path fill="none" stroke="#000000" d="M 38 537 L 233 537" stroke-miterlimit="10"></path></g><g transform="translate(10,10) scale(1,1)"><path fill="#000000" stroke="none" d="M 222.83732514237585 541.209517756016 L 233 537 L 222.83732514237585 532.790482243984"></path></g><g transform="translate(10,10) scale(1,1)"><path fill="none" stroke="#000000" d="M 222.83732514237585 541.209517756016 L 233 537 L 222.83732514237585 532.790482243984 L 222.83732514237585 541.209517756016" stroke-miterlimit="10"></path></g><g transform="translate(10,10) scale(1,1)"><g><path fill="none" stroke="none"></path><text fill="#000000" stroke="none" font-family="Arial" font-size="13px" font-style="normal" font-weight="normal" text-decoration="none" x="40.19775390625" y="532.5">15 : Маршрутный лист</text></g></g><g transform="translate(10,10) scale(1,1)"><rect fill="#ffffff" stroke="none" x="233" y="537" width="13" height="28"></rect></g><g transform="translate(10,10) scale(1,1)"><path fill="none" stroke="#000000" d="M 233 537 L 246 537 L 246 565 L 233 565 L 233 537 Z Z" stroke-miterlimit="10"></path></g><g transform="translate(10,10) scale(1,1)"><path fill="none" stroke="#000000" d="M 246 552 L 606 552" stroke-miterlimit="10"></path></g><g transform="translate(10,10) scale(1,1)"><path fill="none" stroke="#000000" d="M 595.8373251423759 556.209517756016 L 606 552 L 595.8373251423758 547.790482243984" stroke-miterlimit="10"></path></g><g transform="translate(10,10) scale(1,1)"><g><path fill="none" stroke="none"></path><text fill="#000000" stroke="none" font-family="Arial" font-size="13px" font-style="normal" font-weight="normal" text-decoration="none" x="330.84814453125" y="548.5">16 : Выгружаем SHR00000.DAT</text></g></g><g transform="translate(10,10) scale(1,1)"><rect fill="#ffffff" stroke="none" x="606" y="552" width="13" height="28"></rect></g><g transform="translate(10,10) scale(1,1)"><path fill="none" stroke="#000000" d="M 606 552 L 619 552 L 619 580 L 606 580 L 606 552 Z Z" stroke-miterlimit="10"></path></g><g transform="translate(10,10) scale(1,1)"><path fill="none" stroke="#000000" d="M 704 632 L 619 632" stroke-miterlimit="10"></path></g><g transform="translate(10,10) scale(1,1)"><path fill="#000000" stroke="none" d="M 629.1626748576241 627.790482243984 L 619 632 L 629.1626748576241 636.209517756016"></path></g><g transform="translate(10,10) scale(1,1)"><path fill="none" stroke="#000000" d="M 629.1626748576241 627.790482243984 L 619 632 L 629.1626748576241 636.209517756016 L 629.1626748576241 627.790482243984" stroke-miterlimit="10"></path></g><g transform="translate(10,10) scale(1,1)"><g><path fill="none" stroke="none"></path><text fill="#000000" stroke="none" font-family="Arial" font-size="13px" font-style="normal" font-weight="normal" text-decoration="none" x="614.5" y="620.5">17 : Новая инвентаризация</text></g></g><g transform="translate(10,10) scale(1,1)"><rect fill="#ffffff" stroke="none" x="606" y="632" width="13" height="28"></rect></g><g transform="translate(10,10) scale(1,1)"><path fill="none" stroke="#000000" d="M 606 632 L 619 632 L 619 660 L 606 660 L 606 632 Z Z" stroke-miterlimit="10"></path></g><g transform="translate(10,10) scale(1,1)"><path fill="none" stroke="#000000" d="M 606 656 L 246 656" stroke-miterlimit="10"></path></g><g transform="translate(10,10) scale(1,1)"><path fill="#000000" stroke="none" d="M 256.16267485762415 651.790482243984 L 246 656 L 256.16267485762415 660.209517756016"></path></g><g transform="translate(10,10) scale(1,1)"><path fill="none" stroke="#000000" d="M 256.16267485762415 651.790482243984 L 246 656 L 256.16267485762415 660.209517756016 L 256.16267485762415 651.790482243984" stroke-miterlimit="10"></path></g><g transform="translate(10,10) scale(1,1)"><g><path fill="none" stroke="none"></path><text fill="#000000" stroke="none" font-family="Arial" font-size="13px" font-style="normal" font-weight="normal" text-decoration="none" x="264.5" y="672.5">18 : Передача строк инвентаризации(SDO00000.DAT)</text></g></g><g transform="translate(10,10) scale(1,1)"><rect fill="#ffffff" stroke="none" x="233" y="656" width="13" height="28"></rect></g><g transform="translate(10,10) scale(1,1)"><path fill="none" stroke="#000000" d="M 233 656 L 246 656 L 246 684 L 233 684 L 233 656 Z Z" stroke-miterlimit="10"></path></g></g></svg>