<svg version="1.1" xmlns="http://www.w3.org/2000/svg" xmlns:xlink="http://www.w3.org/1999/xlink" width="572" height="404"><defs></defs><g><g transform="translate(-214,-142) scale(1,1)"><rect fill="#C0C0C0" stroke="none" x="231" y="159" width="220.8" height="15" opacity="0.2"></rect></g><g transform="translate(-214,-142) scale(1,1)"><rect fill="#C0C0C0" stroke="none" x="231" y="173" width="552" height="370" opacity="0.2"></rect></g><g transform="translate(-214,-142) scale(1,1)"><rect fill="#ffffff" stroke="none" x="224" y="167" width="552" height="369"></rect></g><g transform="translate(-214,-142) scale(1,1)"><path fill="none" stroke="#000000" d="M 224 167 L 776 167 L 776 536 L 224 536 L 224 167 Z Z" stroke-miterlimit="10"></path></g><g transform="translate(-214,-142) scale(1,1)"><rect fill="#ffffff" stroke="none" x="224" y="152" width="220.8" height="15"></rect></g><g transform="translate(-214,-142) scale(1,1)"><path fill="none" stroke="#000000" d="M 224 152 L 444.8 152 L 444.8 167 L 224 167 L 224 152 Z Z" stroke-miterlimit="10"></path></g><g transform="translate(-214,-142) scale(1,1)"><rect fill="#ffffff" stroke="none" x="224" y="166" width="552" height="370"></rect></g><g transform="translate(-214,-142) scale(1,1)"><path fill="none" stroke="#000000" d="M 224 166 L 776 166 L 776 536 L 224 536 L 224 166 Z Z" stroke-miterlimit="10"></path></g><g transform="translate(-214,-142) scale(1,1)"><g><path fill="none" stroke="none"></path><text fill="#000000" stroke="none" font-family="Arial" font-size="13px" font-style="normal" font-weight="bold" text-decoration="none" x="353" y="186.5">Основные функциональные возможности склада</text></g></g><g transform="translate(-214,-142) scale(1,1)"><rect fill="#C0C0C0" stroke="none" x="575" y="247" width="67.20000000000005" height="15" opacity="0.2"></rect></g><g transform="translate(-214,-142) scale(1,1)"><rect fill="#C0C0C0" stroke="none" x="575" y="261" width="168" height="74" opacity="0.2"></rect></g><g transform="translate(-214,-142) scale(1,1)"><rect fill="#ffffff" stroke="none" x="568" y="255" width="168" height="73"></rect></g><g transform="translate(-214,-142) scale(1,1)"><path fill="none" stroke="#000000" d="M 568 255 L 736 255 L 736 328 L 568 328 L 568 255 Z Z" stroke-miterlimit="10"></path></g><g transform="translate(-214,-142) scale(1,1)"><rect fill="#ffffff" stroke="none" x="568" y="240" width="67.20000000000005" height="15"></rect></g><g transform="translate(-214,-142) scale(1,1)"><path fill="none" stroke="#000000" d="M 568 240 L 635.2 240 L 635.2 255 L 568 255 L 568 240 Z Z" stroke-miterlimit="10"></path></g><g transform="translate(-214,-142) scale(1,1)"><rect fill="#ffffff" stroke="none" x="568" y="254" width="168" height="74"></rect></g><g transform="translate(-214,-142) scale(1,1)"><path fill="none" stroke="#000000" d="M 568 254 L 736 254 L 736 328 L 568 328 L 568 254 Z Z" stroke-miterlimit="10"></path></g><g transform="translate(-214,-142) scale(1,1)"><path fill="none" stroke="#000000" d="M 627.2 243 L 627.2 247" stroke-miterlimit="10"></path></g><g transform="translate(-214,-142) scale(1,1)"><path fill="none" stroke="#000000" d="M 624.2 251 L 624.2 247 L 630.2 247" stroke-miterlimit="10"></path></g><g transform="translate(-214,-142) scale(1,1)"><path fill="none" stroke="#000000" d="M 630.2 251 L 630.2 247 L 624.2 247" stroke-miterlimit="10"></path></g><g transform="translate(-214,-142) scale(1,1)"><g><path fill="none" stroke="none"></path><text fill="#000000" stroke="none" font-family="Arial" font-size="13px" font-style="normal" font-weight="bold" text-decoration="none" x="607.5" y="274.5">Приход товара</text></g></g><g transform="translate(-214,-142) scale(1,1)"><rect fill="#C0C0C0" stroke="none" x="271" y="391" width="68.80000000000001" height="15" opacity="0.2"></rect></g><g transform="translate(-214,-142) scale(1,1)"><rect fill="#C0C0C0" stroke="none" x="271" y="405" width="172" height="74" opacity="0.2"></rect></g><g transform="translate(-214,-142) scale(1,1)"><rect fill="#ffffff" stroke="none" x="264" y="399" width="172" height="73"></rect></g><g transform="translate(-214,-142) scale(1,1)"><path fill="none" stroke="#000000" d="M 264 399 L 436 399 L 436 472 L 264 472 L 264 399 Z Z" stroke-miterlimit="10"></path></g><g transform="translate(-214,-142) scale(1,1)"><rect fill="#ffffff" stroke="none" x="264" y="384" width="68.80000000000001" height="15"></rect></g><g transform="translate(-214,-142) scale(1,1)"><path fill="none" stroke="#000000" d="M 264 384 L 332.8 384 L 332.8 399 L 264 399 L 264 384 Z Z" stroke-miterlimit="10"></path></g><g transform="translate(-214,-142) scale(1,1)"><rect fill="#ffffff" stroke="none" x="264" y="398" width="172" height="74"></rect></g><g transform="translate(-214,-142) scale(1,1)"><path fill="none" stroke="#000000" d="M 264 398 L 436 398 L 436 472 L 264 472 L 264 398 Z Z" stroke-miterlimit="10"></path></g><g transform="translate(-214,-142) scale(1,1)"><path fill="none" stroke="#000000" d="M 324.8 387 L 324.8 391" stroke-miterlimit="10"></path></g><g transform="translate(-214,-142) scale(1,1)"><path fill="none" stroke="#000000" d="M 321.8 395 L 321.8 391 L 327.8 391" stroke-miterlimit="10"></path></g><g transform="translate(-214,-142) scale(1,1)"><path fill="none" stroke="#000000" d="M 327.8 395 L 327.8 391 L 321.8 391" stroke-miterlimit="10"></path></g><g transform="translate(-214,-142) scale(1,1)"><g><path fill="none" stroke="none"></path><text fill="#000000" stroke="none" font-family="Arial" font-size="13px" font-style="normal" font-weight="bold" text-decoration="none" x="275.5" y="418.5">Размещение и хранение</text></g></g><g transform="translate(-214,-142) scale(1,1)"><rect fill="#C0C0C0" stroke="none" x="575" y="383" width="71.20000000000005" height="15" opacity="0.2"></rect></g><g transform="translate(-214,-142) scale(1,1)"><rect fill="#C0C0C0" stroke="none" x="575" y="397" width="178" height="74" opacity="0.2"></rect></g><g transform="translate(-214,-142) scale(1,1)"><rect fill="#ffffff" stroke="none" x="568" y="391" width="178" height="73"></rect></g><g transform="translate(-214,-142) scale(1,1)"><path fill="none" stroke="#000000" d="M 568 391 L 746 391 L 746 464 L 568 464 L 568 391 Z Z" stroke-miterlimit="10"></path></g><g transform="translate(-214,-142) scale(1,1)"><rect fill="#ffffff" stroke="none" x="568" y="376" width="71.20000000000005" height="15"></rect></g><g transform="translate(-214,-142) scale(1,1)"><path fill="none" stroke="#000000" d="M 568 376 L 639.2 376 L 639.2 391 L 568 391 L 568 376 Z Z" stroke-miterlimit="10"></path></g><g transform="translate(-214,-142) scale(1,1)"><rect fill="#ffffff" stroke="none" x="568" y="390" width="178" height="74"></rect></g><g transform="translate(-214,-142) scale(1,1)"><path fill="none" stroke="#000000" d="M 568 390 L 746 390 L 746 464 L 568 464 L 568 390 Z Z" stroke-miterlimit="10"></path></g><g transform="translate(-214,-142) scale(1,1)"><path fill="none" stroke="#000000" d="M 631.2 379 L 631.2 383" stroke-miterlimit="10"></path></g><g transform="translate(-214,-142) scale(1,1)"><path fill="none" stroke="#000000" d="M 628.2 387 L 628.2 383 L 634.2 383" stroke-miterlimit="10"></path></g><g transform="translate(-214,-142) scale(1,1)"><path fill="none" stroke="#000000" d="M 634.2 387 L 634.2 383 L 628.2 383" stroke-miterlimit="10"></path></g><g transform="translate(-214,-142) scale(1,1)"><g><path fill="none" stroke="none"></path><text fill="#000000" stroke="none" font-family="Arial" font-size="13px" font-style="normal" font-weight="bold" text-decoration="none" x="581.5" y="410.5">Контроль и учет остатков</text></g></g><g transform="translate(-214,-142) scale(1,1)"><rect fill="#C0C0C0" stroke="none" x="263" y="239" width="70.39999999999998" height="15" opacity="0.2"></rect></g><g transform="translate(-214,-142) scale(1,1)"><rect fill="#C0C0C0" stroke="none" x="263" y="253" width="176" height="74" opacity="0.2"></rect></g><g transform="translate(-214,-142) scale(1,1)"><rect fill="#ffffff" stroke="none" x="256" y="247" width="176" height="73"></rect></g><g transform="translate(-214,-142) scale(1,1)"><path fill="none" stroke="#000000" d="M 256 247 L 432 247 L 432 320 L 256 320 L 256 247 Z Z" stroke-miterlimit="10"></path></g><g transform="translate(-214,-142) scale(1,1)"><rect fill="#ffffff" stroke="none" x="256" y="232" width="70.39999999999998" height="15"></rect></g><g transform="translate(-214,-142) scale(1,1)"><path fill="none" stroke="#000000" d="M 256 232 L 326.4 232 L 326.4 247 L 256 247 L 256 232 Z Z" stroke-miterlimit="10"></path></g><g transform="translate(-214,-142) scale(1,1)"><rect fill="#ffffff" stroke="none" x="256" y="246" width="176" height="74"></rect></g><g transform="translate(-214,-142) scale(1,1)"><path fill="none" stroke="#000000" d="M 256 246 L 432 246 L 432 320 L 256 320 L 256 246 Z Z" stroke-miterlimit="10"></path></g><g transform="translate(-214,-142) scale(1,1)"><path fill="none" stroke="#000000" d="M 318.4 235 L 318.4 239" stroke-miterlimit="10"></path></g><g transform="translate(-214,-142) scale(1,1)"><path fill="none" stroke="#000000" d="M 315.4 243 L 315.4 239 L 321.4 239" stroke-miterlimit="10"></path></g><g transform="translate(-214,-142) scale(1,1)"><path fill="none" stroke="#000000" d="M 321.4 243 L 321.4 239 L 315.4 239" stroke-miterlimit="10"></path></g><g transform="translate(-214,-142) scale(1,1)"><g><path fill="none" stroke="none"></path><text fill="#000000" stroke="none" font-family="Arial" font-size="13px" font-style="normal" font-weight="bold" text-decoration="none" x="294" y="266.5">Отправки товара</text></g></g></g></svg>