<svg version="1.1" xmlns="http://www.w3.org/2000/svg" xmlns:xlink="http://www.w3.org/1999/xlink" width="774" height="556"><defs></defs><g><g transform="translate(-142,-30) scale(1,1)"><rect fill="#C0C0C0" stroke="none" x="279" y="47" width="504" height="536" opacity="0.2"></rect></g><g transform="translate(-142,-30) scale(1,1)"><rect fill="#ffffff" stroke="none" x="272" y="40" width="504" height="536"></rect></g><g transform="translate(-142,-30) scale(1,1)"><path fill="none" stroke="#000000" d="M 272 40 L 776 40 L 776 576 L 272 576 L 272 40 Z Z" stroke-miterlimit="10"></path></g><g transform="translate(-142,-30) scale(1,1)"><g><path fill="none" stroke="none"></path><text fill="#000000" stroke="none" font-family="Arial" font-size="13px" font-style="normal" font-weight="bold" text-decoration="none" x="467.5" y="59.5">Приход товара</text></g></g><g transform="translate(-142,-30) scale(1,1)"><path fill="#ffffff" stroke="none" d="M 192.35783664772728 369.68 C 192.35783664772728 364.886167936 196.24367897267274 361 201.037109375 361 C 205.83053977732726 361 209.71638210227272 364.886167936 209.71638210227272 369.68 C 209.71638210227272 374.473832064 205.83053977732726 378.36 201.037109375 378.36 C 196.24367897267274 378.36 192.35783664772728 374.473832064 192.35783664772728 369.68 Z"></path></g><g transform="translate(-142,-30) scale(1,1)"><path fill="none" stroke="#000000" d="M 192.35783664772728 369.68 C 192.35783664772728 364.886167936 196.24367897267274 361 201.037109375 361 C 205.83053977732726 361 209.71638210227272 364.886167936 209.71638210227272 369.68 C 209.71638210227272 374.473832064 205.83053977732726 378.36 201.037109375 378.36 C 196.24367897267274 378.36 192.35783664772728 374.473832064 192.35783664772728 369.68 Z" stroke-miterlimit="10"></path></g><g transform="translate(-142,-30) scale(1,1)"><path fill="none" stroke="#000000" d="M 201.037109375 378.36 L 201.037109375 395.64" stroke-miterlimit="10"></path></g><g transform="translate(-142,-30) scale(1,1)"><path fill="none" stroke="#000000" d="M 191.84729119318183 384.84 L 210.22692755681817 384.84" stroke-miterlimit="10"></path></g><g transform="translate(-142,-30) scale(1,1)"><path fill="none" stroke="#000000" d="M 201.037109375 395.64 L 188.27347301136365 413" stroke-miterlimit="10"></path></g><g transform="translate(-142,-30) scale(1,1)"><path fill="none" stroke="#000000" d="M 201.037109375 395.64 L 213.80074573863635 413" stroke-miterlimit="10"></path></g><g transform="translate(-142,-30) scale(1,1)"><g><path fill="none" stroke="none"></path><text fill="#000000" stroke="none" font-family="Arial" font-size="13px" font-style="normal" font-weight="bold" text-decoration="none" x="166.537109375" y="433.5">Кладовщик</text></g></g><g transform="translate(-142,-30) scale(1,1)"><path fill="#ffffff" stroke="none" d="M 868.3207272727273 249.68 C 868.3207272727273 244.886167936 872.2065695976727 241 877 241 C 881.7934304023273 241 885.6792727272727 244.886167936 885.6792727272727 249.68 C 885.6792727272727 254.47383206400002 881.7934304023273 258.36 877 258.36 C 872.2065695976727 258.36 868.3207272727273 254.47383206400002 868.3207272727273 249.68 Z"></path></g><g transform="translate(-142,-30) scale(1,1)"><path fill="none" stroke="#000000" d="M 868.3207272727273 249.68 C 868.3207272727273 244.886167936 872.2065695976727 241 877 241 C 881.7934304023273 241 885.6792727272727 244.886167936 885.6792727272727 249.68 C 885.6792727272727 254.47383206400002 881.7934304023273 258.36 877 258.36 C 872.2065695976727 258.36 868.3207272727273 254.47383206400002 868.3207272727273 249.68 Z" stroke-miterlimit="10"></path></g><g transform="translate(-142,-30) scale(1,1)"><path fill="none" stroke="#000000" d="M 877 258.36 L 877 275.64" stroke-miterlimit="10"></path></g><g transform="translate(-142,-30) scale(1,1)"><path fill="none" stroke="#000000" d="M 867.8101818181818 264.84 L 886.1898181818182 264.84" stroke-miterlimit="10"></path></g><g transform="translate(-142,-30) scale(1,1)"><path fill="none" stroke="#000000" d="M 877 275.64 L 864.2363636363636 293" stroke-miterlimit="10"></path></g><g transform="translate(-142,-30) scale(1,1)"><path fill="none" stroke="#000000" d="M 877 275.64 L 889.7636363636364 293" stroke-miterlimit="10"></path></g><g transform="translate(-142,-30) scale(1,1)"><g><path fill="none" stroke="none"></path><text fill="#000000" stroke="none" font-family="Arial" font-size="13px" font-style="normal" font-weight="bold" text-decoration="none" x="853.5" y="313.5">Карщик</text></g></g><g transform="translate(-142,-30) scale(1,1)"><path fill="#ffffff" stroke="none" d="M 183.60563938210228 161.68 C 183.60563938210228 156.886167936 187.49148170704774 153 192.284912109375 153 C 197.07834251170226 153 200.96418483664772 156.886167936 200.96418483664772 161.68 C 200.96418483664772 166.47383206400002 197.07834251170226 170.36 192.284912109375 170.36 C 187.49148170704774 170.36 183.60563938210228 166.47383206400002 183.60563938210228 161.68 Z"></path></g><g transform="translate(-142,-30) scale(1,1)"><path fill="none" stroke="#000000" d="M 183.60563938210228 161.68 C 183.60563938210228 156.886167936 187.49148170704774 153 192.284912109375 153 C 197.07834251170226 153 200.96418483664772 156.886167936 200.96418483664772 161.68 C 200.96418483664772 166.47383206400002 197.07834251170226 170.36 192.284912109375 170.36 C 187.49148170704774 170.36 183.60563938210228 166.47383206400002 183.60563938210228 161.68 Z" stroke-miterlimit="10"></path></g><g transform="translate(-142,-30) scale(1,1)"><path fill="none" stroke="#000000" d="M 192.284912109375 170.36 L 192.284912109375 187.64" stroke-miterlimit="10"></path></g><g transform="translate(-142,-30) scale(1,1)"><path fill="none" stroke="#000000" d="M 183.09509392755683 176.84 L 201.47473029119317 176.84" stroke-miterlimit="10"></path></g><g transform="translate(-142,-30) scale(1,1)"><path fill="none" stroke="#000000" d="M 192.284912109375 187.64 L 179.52127574573865 205" stroke-miterlimit="10"></path></g><g transform="translate(-142,-30) scale(1,1)"><path fill="none" stroke="#000000" d="M 192.284912109375 187.64 L 205.04854847301135 205" stroke-miterlimit="10"></path></g><g transform="translate(-142,-30) scale(1,1)"><g><path fill="none" stroke="none"></path><text fill="#000000" stroke="none" font-family="Arial" font-size="13px" font-style="normal" font-weight="bold" text-decoration="none" x="158.784912109375" y="225.5">Поставщик</text></g></g><g transform="translate(-142,-30) scale(1,1)"><path fill="#C0C0C0" stroke="none" d="M 367 138.5 C 367 123.312168 440.42529279999997 111 531 111 C 621.5747072 111 695 123.312168 695 138.5 C 695 153.68783200000001 621.5747072 166 531 166 C 440.42529279999997 166 367 153.68783200000001 367 138.5 Z" opacity="0.2"></path></g><g transform="translate(-142,-30) scale(1,1)"><path fill="#ffffff" stroke="none" d="M 360 131.5 C 360 116.312168 433.42529279999997 104 524 104 C 614.5747072 104 688 116.312168 688 131.5 C 688 146.68783200000001 614.5747072 159 524 159 C 433.42529279999997 159 360 146.68783200000001 360 131.5 Z"></path></g><g transform="translate(-142,-30) scale(1,1)"><path fill="none" stroke="#000000" d="M 360 131.5 C 360 116.312168 433.42529279999997 104 524 104 C 614.5747072 104 688 116.312168 688 131.5 C 688 146.68783200000001 614.5747072 159 524 159 C 433.42529279999997 159 360 146.68783200000001 360 131.5 Z" stroke-miterlimit="10"></path></g><g transform="translate(-142,-30) scale(1,1)"><g><path fill="none" stroke="none"></path><text fill="#000000" stroke="none" font-family="Arial" font-size="13px" font-style="normal" font-weight="normal" text-decoration="none" x="483.5" y="130">«Поставщик»</text></g></g><g transform="translate(-142,-30) scale(1,1)"><g><path fill="none" stroke="none"></path><text fill="#000000" stroke="none" font-family="Arial" font-size="13px" font-style="normal" font-weight="bold" text-decoration="none" x="427" y="145">Доставка товара дистрибьютору</text></g></g><g transform="translate(-142,-30) scale(1,1)"><path fill="#C0C0C0" stroke="none" d="M 359 355 C 359 339.5360256 440.26030879999996 327 540.5 327 C 640.7396912 327 722 339.5360256 722 355 C 722 370.4639744 640.7396912 383 540.5 383 C 440.26030879999996 383 359 370.4639744 359 355 Z" opacity="0.2"></path></g><g transform="translate(-142,-30) scale(1,1)"><path fill="#ffffff" stroke="none" d="M 352 348 C 352 332.5360256 433.26030879999996 320 533.5 320 C 633.7396912 320 715 332.5360256 715 348 C 715 363.4639744 633.7396912 376 533.5 376 C 433.26030879999996 376 352 363.4639744 352 348 Z"></path></g><g transform="translate(-142,-30) scale(1,1)"><path fill="none" stroke="#000000" d="M 352 348 C 352 332.5360256 433.26030879999996 320 533.5 320 C 633.7396912 320 715 332.5360256 715 348 C 715 363.4639744 633.7396912 376 533.5 376 C 433.26030879999996 376 352 363.4639744 352 348 Z" stroke-miterlimit="10"></path></g><g transform="translate(-142,-30) scale(1,1)"><g><path fill="none" stroke="none"></path><text fill="#000000" stroke="none" font-family="Arial" font-size="13px" font-style="normal" font-weight="normal" text-decoration="none" x="503" y="346.5">«Карщик»</text></g></g><g transform="translate(-142,-30) scale(1,1)"><g><path fill="none" stroke="none"></path><text fill="#000000" stroke="none" font-family="Arial" font-size="13px" font-style="normal" font-weight="bold" text-decoration="none" x="420.5" y="361.5">Перемещение товара в зону приемки</text></g></g><g transform="translate(-142,-30) scale(1,1)"><path fill="#C0C0C0" stroke="none" d="M 295 419 C 295 403.5360256 401.33236 391 532.5 391 C 663.66764 391 770 403.5360256 770 419 C 770 434.4639744 663.66764 447 532.5 447 C 401.33236 447 295 434.4639744 295 419 Z" opacity="0.2"></path></g><g transform="translate(-142,-30) scale(1,1)"><path fill="#ffffff" stroke="none" d="M 288 412 C 288 396.5360256 394.33236 384 525.5 384 C 656.66764 384 763 396.5360256 763 412 C 763 427.4639744 656.66764 440 525.5 440 C 394.33236 440 288 427.4639744 288 412 Z"></path></g><g transform="translate(-142,-30) scale(1,1)"><path fill="none" stroke="#000000" d="M 288 412 C 288 396.5360256 394.33236 384 525.5 384 C 656.66764 384 763 396.5360256 763 412 C 763 427.4639744 656.66764 440 525.5 440 C 394.33236 440 288 427.4639744 288 412 Z" stroke-miterlimit="10"></path></g><g transform="translate(-142,-30) scale(1,1)"><g><path fill="none" stroke="none"></path><text fill="#000000" stroke="none" font-family="Arial" font-size="11px" font-style="normal" font-weight="normal" text-decoration="none" x="491" y="410.5">«Кладовщик»</text></g></g><g transform="translate(-142,-30) scale(1,1)"><g><path fill="none" stroke="none"></path><text fill="#000000" stroke="none" font-family="Arial" font-size="11px" font-style="normal" font-weight="bold" text-decoration="none" x="375" y="423.5">Сверка корректности прихода по документам поставщика</text></g></g><g transform="translate(-142,-30) scale(1,1)"><path fill="#C0C0C0" stroke="none" d="M 311 515 C 311 499.5360256 407.7064832 487 527 487 C 646.2935168 487 743 499.5360256 743 515 C 743 530.4639744 646.2935168 543 527 543 C 407.7064832 543 311 530.4639744 311 515 Z" opacity="0.2"></path></g><g transform="translate(-142,-30) scale(1,1)"><path fill="#ffffff" stroke="none" d="M 304 508 C 304 492.5360256 400.7064832 480 520 480 C 639.2935168 480 736 492.5360256 736 508 C 736 523.4639744 639.2935168 536 520 536 C 400.7064832 536 304 523.4639744 304 508 Z"></path></g><g transform="translate(-142,-30) scale(1,1)"><path fill="none" stroke="#000000" d="M 304 508 C 304 492.5360256 400.7064832 480 520 480 C 639.2935168 480 736 492.5360256 736 508 C 736 523.4639744 639.2935168 536 520 536 C 400.7064832 536 304 523.4639744 304 508 Z" stroke-miterlimit="10"></path></g><g transform="translate(-142,-30) scale(1,1)"><g><path fill="none" stroke="none"></path><text fill="#000000" stroke="none" font-family="Arial" font-size="12px" font-style="normal" font-weight="normal" text-decoration="none" x="481.5" y="506.5">«Кладовщик»</text></g></g><g transform="translate(-142,-30) scale(1,1)"><g><path fill="none" stroke="none"></path><text fill="#000000" stroke="none" font-family="Arial" font-size="12px" font-style="normal" font-weight="bold" text-decoration="none" x="383" y="520.5">Оформление возвратных докуметов поставщику</text></g></g><g transform="translate(-142,-30) scale(1,1)"><path fill="none" stroke="#000000" d="M 234 183 L 364 160" stroke-miterlimit="10"></path></g><g transform="translate(-142,-30) scale(1,1)"><path fill="none" stroke="#000000" d="M 678 319 L 847 285" stroke-miterlimit="10"></path></g><g transform="translate(-142,-30) scale(1,1)"><path fill="none" stroke="#000000" d="M 243 401 L 287 402" stroke-miterlimit="10"></path></g><g transform="translate(-142,-30) scale(1,1)"><path fill="none" stroke="#000000" d="M 243 413 L 435 479" stroke-miterlimit="10"></path></g><g transform="translate(-142,-30) scale(1,1)"><path fill="#C0C0C0" stroke="none" d="M 295 271.5 C 295 257.9690224 400.213072 247 530 247 C 659.786928 247 765 257.9690224 765 271.5 C 765 285.0309776 659.786928 296 530 296 C 400.213072 296 295 285.0309776 295 271.5 Z" opacity="0.2"></path></g><g transform="translate(-142,-30) scale(1,1)"><path fill="#ffffff" stroke="none" d="M 288 264.5 C 288 250.9690224 393.213072 240 523 240 C 652.786928 240 758 250.9690224 758 264.5 C 758 278.0309776 652.786928 289 523 289 C 393.213072 289 288 278.0309776 288 264.5 Z"></path></g><g transform="translate(-142,-30) scale(1,1)"><path fill="none" stroke="#000000" d="M 288 264.5 C 288 250.9690224 393.213072 240 523 240 C 652.786928 240 758 250.9690224 758 264.5 C 758 278.0309776 652.786928 289 523 289 C 393.213072 289 288 278.0309776 288 264.5 Z" stroke-miterlimit="10"></path></g><g transform="translate(-142,-30) scale(1,1)"><g><path fill="none" stroke="none"></path><text fill="#000000" stroke="none" font-family="Arial" font-size="12px" font-style="normal" font-weight="normal" text-decoration="none" x="484.5" y="263">«Кладовщик»</text></g></g><g transform="translate(-142,-30) scale(1,1)"><g><path fill="none" stroke="none"></path><text fill="#000000" stroke="none" font-family="Arial" font-size="12px" font-style="normal" font-weight="bold" text-decoration="none" x="379" y="277">Проверка и документирование целосности товара</text></g></g><g transform="translate(-142,-30) scale(1,1)"><path fill="none" stroke="#000000" d="M 523 239 L 524 160" stroke-miterlimit="10" stroke-dasharray="3"></path></g><g transform="translate(-142,-30) scale(1,1)"><path fill="none" stroke="#000000" d="M 528.0805494005072 170.21514153548645 L 524 160 L 519.6621883015425 170.10858000258816" stroke-miterlimit="10"></path></g><g transform="translate(-142,-30) scale(1,1)"><g><path fill="none" stroke="none"></path><text fill="#000000" stroke="none" font-family="Arial" font-size="13px" font-style="normal" font-weight="normal" text-decoration="none" x="466.745849609375" y="204.5">«extend»</text></g></g><g transform="translate(-142,-30) scale(1,1)"><path fill="#ffffff" stroke="none" d="M 560 176 L 709 176 L 719 186 L 719 212 L 560 212 L 560 176"></path></g><g transform="translate(-142,-30) scale(1,1)"><path fill="none" stroke="#000000" d="M 560 176 L 709 176 L 719 186 L 719 212 L 560 212 L 560 176 L 560 176" stroke-miterlimit="10"></path></g><g transform="translate(-142,-30) scale(1,1)"><path fill="none" stroke="#000000" d="M 709 176 L 709 186 L 719 186 L 709 176" stroke-miterlimit="10"></path></g><g transform="translate(-142,-30) scale(1,1)"><g><path fill="none" stroke="none"></path><text fill="#000000" stroke="none" font-family="Arial" font-size="13px" font-style="normal" font-weight="normal" text-decoration="none" x="565" y="194">Доставка товара в кегах</text></g></g><g transform="translate(-142,-30) scale(1,1)"><path fill="none" stroke="#000000" d="M 523 199 L 559 197" stroke-miterlimit="10" stroke-dasharray="3"></path></g><g transform="translate(-142,-30) scale(1,1)"><path fill="none" stroke="#000000" d="M 243 381 L 461 290" stroke-miterlimit="10"></path></g></g></svg>